<mxfile host="app.diagrams.net" modified="2024-04-18T20:22:40.618Z" agent="Mozilla/5.0 (Windows NT 10.0; Win64; x64) AppleWebKit/537.36 (KHTML, like Gecko) Chrome/122.0.0.0 Safari/537.36 OPR/108.0.0.0 (Edition Yx 05)" etag="wGxveyYRnruy27nPYkGT" version="24.2.5" type="github">
  <diagram id="C5RBs43oDa-KdzZeNtuy" name="Page-1">
    <mxGraphModel dx="1380" dy="749" grid="1" gridSize="10" guides="1" tooltips="1" connect="1" arrows="1" fold="1" page="1" pageScale="1" pageWidth="827" pageHeight="1169" math="0" shadow="0">
      <root>
        <mxCell id="WIyWlLk6GJQsqaUBKTNV-0" />
        <mxCell id="WIyWlLk6GJQsqaUBKTNV-1" parent="WIyWlLk6GJQsqaUBKTNV-0" />
        <mxCell id="L28LVKQezSPmxj77LQ7G-15" style="edgeStyle=orthogonalEdgeStyle;rounded=0;orthogonalLoop=1;jettySize=auto;html=1;" edge="1" parent="WIyWlLk6GJQsqaUBKTNV-1" source="L28LVKQezSPmxj77LQ7G-0" target="L28LVKQezSPmxj77LQ7G-1">
          <mxGeometry relative="1" as="geometry" />
        </mxCell>
        <mxCell id="L28LVKQezSPmxj77LQ7G-0" value="Start" style="ellipse;whiteSpace=wrap;html=1;" vertex="1" parent="WIyWlLk6GJQsqaUBKTNV-1">
          <mxGeometry x="340" y="40" width="120" height="80" as="geometry" />
        </mxCell>
        <mxCell id="L28LVKQezSPmxj77LQ7G-16" style="edgeStyle=orthogonalEdgeStyle;rounded=0;orthogonalLoop=1;jettySize=auto;html=1;" edge="1" parent="WIyWlLk6GJQsqaUBKTNV-1" source="L28LVKQezSPmxj77LQ7G-1" target="L28LVKQezSPmxj77LQ7G-4">
          <mxGeometry relative="1" as="geometry" />
        </mxCell>
        <mxCell id="L28LVKQezSPmxj77LQ7G-1" value="Input(n)&lt;div&gt;Input (array)&lt;/div&gt;" style="shape=parallelogram;perimeter=parallelogramPerimeter;whiteSpace=wrap;html=1;fixedSize=1;" vertex="1" parent="WIyWlLk6GJQsqaUBKTNV-1">
          <mxGeometry x="305" y="170" width="190" height="60" as="geometry" />
        </mxCell>
        <mxCell id="L28LVKQezSPmxj77LQ7G-17" style="edgeStyle=orthogonalEdgeStyle;rounded=0;orthogonalLoop=1;jettySize=auto;html=1;" edge="1" parent="WIyWlLk6GJQsqaUBKTNV-1" source="L28LVKQezSPmxj77LQ7G-4" target="L28LVKQezSPmxj77LQ7G-5">
          <mxGeometry relative="1" as="geometry" />
        </mxCell>
        <mxCell id="L28LVKQezSPmxj77LQ7G-4" value="s=0" style="rounded=0;whiteSpace=wrap;html=1;" vertex="1" parent="WIyWlLk6GJQsqaUBKTNV-1">
          <mxGeometry x="340" y="280" width="120" height="60" as="geometry" />
        </mxCell>
        <mxCell id="L28LVKQezSPmxj77LQ7G-9" style="edgeStyle=orthogonalEdgeStyle;rounded=0;orthogonalLoop=1;jettySize=auto;html=1;entryX=0.5;entryY=0;entryDx=0;entryDy=0;" edge="1" parent="WIyWlLk6GJQsqaUBKTNV-1" source="L28LVKQezSPmxj77LQ7G-5" target="L28LVKQezSPmxj77LQ7G-7">
          <mxGeometry relative="1" as="geometry" />
        </mxCell>
        <mxCell id="L28LVKQezSPmxj77LQ7G-13" style="edgeStyle=orthogonalEdgeStyle;rounded=0;orthogonalLoop=1;jettySize=auto;html=1;" edge="1" parent="WIyWlLk6GJQsqaUBKTNV-1" source="L28LVKQezSPmxj77LQ7G-5" target="L28LVKQezSPmxj77LQ7G-14">
          <mxGeometry relative="1" as="geometry">
            <mxPoint x="520" y="880" as="targetPoint" />
            <Array as="points">
              <mxPoint x="720" y="435" />
              <mxPoint x="720" y="730" />
              <mxPoint x="390" y="730" />
            </Array>
          </mxGeometry>
        </mxCell>
        <mxCell id="L28LVKQezSPmxj77LQ7G-5" value="i=0; i&amp;lt;array.Length, i++" style="shape=hexagon;perimeter=hexagonPerimeter2;whiteSpace=wrap;html=1;fixedSize=1;" vertex="1" parent="WIyWlLk6GJQsqaUBKTNV-1">
          <mxGeometry x="315" y="390" width="170" height="90" as="geometry" />
        </mxCell>
        <mxCell id="L28LVKQezSPmxj77LQ7G-8" style="edgeStyle=orthogonalEdgeStyle;rounded=0;orthogonalLoop=1;jettySize=auto;html=1;entryX=0;entryY=0.75;entryDx=0;entryDy=0;exitX=0;exitY=0.5;exitDx=0;exitDy=0;" edge="1" parent="WIyWlLk6GJQsqaUBKTNV-1" source="L28LVKQezSPmxj77LQ7G-7" target="L28LVKQezSPmxj77LQ7G-5">
          <mxGeometry relative="1" as="geometry">
            <Array as="points">
              <mxPoint x="274" y="580" />
              <mxPoint x="160" y="580" />
              <mxPoint x="160" y="455" />
            </Array>
          </mxGeometry>
        </mxCell>
        <mxCell id="L28LVKQezSPmxj77LQ7G-11" value="" style="edgeStyle=orthogonalEdgeStyle;rounded=0;orthogonalLoop=1;jettySize=auto;html=1;exitX=1;exitY=0.5;exitDx=0;exitDy=0;" edge="1" parent="WIyWlLk6GJQsqaUBKTNV-1" source="L28LVKQezSPmxj77LQ7G-7" target="L28LVKQezSPmxj77LQ7G-10">
          <mxGeometry relative="1" as="geometry" />
        </mxCell>
        <mxCell id="L28LVKQezSPmxj77LQ7G-7" value="array[i].Length &amp;lt;= 3" style="rhombus;whiteSpace=wrap;html=1;" vertex="1" parent="WIyWlLk6GJQsqaUBKTNV-1">
          <mxGeometry x="273.5" y="520" width="253" height="115" as="geometry" />
        </mxCell>
        <mxCell id="L28LVKQezSPmxj77LQ7G-12" style="edgeStyle=orthogonalEdgeStyle;rounded=0;orthogonalLoop=1;jettySize=auto;html=1;exitX=0;exitY=0.5;exitDx=0;exitDy=0;entryX=0;entryY=0.25;entryDx=0;entryDy=0;" edge="1" parent="WIyWlLk6GJQsqaUBKTNV-1" source="L28LVKQezSPmxj77LQ7G-10" target="L28LVKQezSPmxj77LQ7G-5">
          <mxGeometry relative="1" as="geometry">
            <mxPoint x="100" y="450" as="targetPoint" />
            <mxPoint x="130" y="792.5" as="sourcePoint" />
            <Array as="points">
              <mxPoint x="120" y="670" />
              <mxPoint x="120" y="415" />
            </Array>
          </mxGeometry>
        </mxCell>
        <mxCell id="L28LVKQezSPmxj77LQ7G-10" value="s = s + 1" style="whiteSpace=wrap;html=1;" vertex="1" parent="WIyWlLk6GJQsqaUBKTNV-1">
          <mxGeometry x="540" y="640" width="120" height="60" as="geometry" />
        </mxCell>
        <mxCell id="L28LVKQezSPmxj77LQ7G-19" style="edgeStyle=orthogonalEdgeStyle;rounded=0;orthogonalLoop=1;jettySize=auto;html=1;entryX=0.5;entryY=0;entryDx=0;entryDy=0;" edge="1" parent="WIyWlLk6GJQsqaUBKTNV-1" source="L28LVKQezSPmxj77LQ7G-14" target="L28LVKQezSPmxj77LQ7G-18">
          <mxGeometry relative="1" as="geometry" />
        </mxCell>
        <mxCell id="L28LVKQezSPmxj77LQ7G-14" value="final_array = new array [s]" style="rounded=0;whiteSpace=wrap;html=1;" vertex="1" parent="WIyWlLk6GJQsqaUBKTNV-1">
          <mxGeometry x="305" y="760" width="170" height="60" as="geometry" />
        </mxCell>
        <mxCell id="L28LVKQezSPmxj77LQ7G-21" style="edgeStyle=orthogonalEdgeStyle;rounded=0;orthogonalLoop=1;jettySize=auto;html=1;entryX=0.5;entryY=0;entryDx=0;entryDy=0;" edge="1" parent="WIyWlLk6GJQsqaUBKTNV-1" source="L28LVKQezSPmxj77LQ7G-18" target="L28LVKQezSPmxj77LQ7G-20">
          <mxGeometry relative="1" as="geometry" />
        </mxCell>
        <mxCell id="L28LVKQezSPmxj77LQ7G-26" style="edgeStyle=orthogonalEdgeStyle;rounded=0;orthogonalLoop=1;jettySize=auto;html=1;" edge="1" parent="WIyWlLk6GJQsqaUBKTNV-1" source="L28LVKQezSPmxj77LQ7G-18" target="L28LVKQezSPmxj77LQ7G-27">
          <mxGeometry relative="1" as="geometry">
            <mxPoint x="740" y="1240" as="targetPoint" />
            <Array as="points">
              <mxPoint x="750" y="910" />
              <mxPoint x="750" y="1280" />
              <mxPoint x="400" y="1280" />
            </Array>
          </mxGeometry>
        </mxCell>
        <mxCell id="L28LVKQezSPmxj77LQ7G-18" value="&lt;br&gt;&lt;span style=&quot;color: rgb(0, 0, 0); font-family: Helvetica; font-size: 12px; font-style: normal; font-variant-ligatures: normal; font-variant-caps: normal; font-weight: 400; letter-spacing: normal; orphans: 2; text-align: center; text-indent: 0px; text-transform: none; widows: 2; word-spacing: 0px; -webkit-text-stroke-width: 0px; white-space: normal; background-color: rgb(251, 251, 251); text-decoration-thickness: initial; text-decoration-style: initial; text-decoration-color: initial; display: inline !important; float: none;&quot;&gt;i=0; j =0, i&amp;lt;array.Length, i++&lt;/span&gt;&lt;div&gt;&lt;br/&gt;&lt;/div&gt;" style="shape=hexagon;perimeter=hexagonPerimeter2;whiteSpace=wrap;html=1;fixedSize=1;" vertex="1" parent="WIyWlLk6GJQsqaUBKTNV-1">
          <mxGeometry x="280" y="870" width="220" height="80" as="geometry" />
        </mxCell>
        <mxCell id="L28LVKQezSPmxj77LQ7G-22" style="edgeStyle=orthogonalEdgeStyle;rounded=0;orthogonalLoop=1;jettySize=auto;html=1;entryX=0;entryY=0.75;entryDx=0;entryDy=0;" edge="1" parent="WIyWlLk6GJQsqaUBKTNV-1" source="L28LVKQezSPmxj77LQ7G-20" target="L28LVKQezSPmxj77LQ7G-18">
          <mxGeometry relative="1" as="geometry">
            <Array as="points">
              <mxPoint x="160" y="1030" />
              <mxPoint x="160" y="928" />
            </Array>
          </mxGeometry>
        </mxCell>
        <mxCell id="L28LVKQezSPmxj77LQ7G-23" style="edgeStyle=orthogonalEdgeStyle;rounded=0;orthogonalLoop=1;jettySize=auto;html=1;" edge="1" parent="WIyWlLk6GJQsqaUBKTNV-1" source="L28LVKQezSPmxj77LQ7G-20" target="L28LVKQezSPmxj77LQ7G-24">
          <mxGeometry relative="1" as="geometry">
            <mxPoint x="610" y="1150" as="targetPoint" />
            <Array as="points">
              <mxPoint x="610" y="1030" />
              <mxPoint x="610" y="1160" />
            </Array>
          </mxGeometry>
        </mxCell>
        <mxCell id="L28LVKQezSPmxj77LQ7G-20" value="&lt;span style=&quot;color: rgb(0, 0, 0); font-family: Helvetica; font-size: 12px; font-style: normal; font-variant-ligatures: normal; font-variant-caps: normal; font-weight: 400; letter-spacing: normal; orphans: 2; text-align: center; text-indent: 0px; text-transform: none; widows: 2; word-spacing: 0px; -webkit-text-stroke-width: 0px; white-space: normal; background-color: rgb(251, 251, 251); text-decoration-thickness: initial; text-decoration-style: initial; text-decoration-color: initial; display: inline !important; float: none;&quot;&gt;array[i].Length &amp;lt;= 3&lt;/span&gt;" style="rhombus;whiteSpace=wrap;html=1;" vertex="1" parent="WIyWlLk6GJQsqaUBKTNV-1">
          <mxGeometry x="277.5" y="990" width="225" height="80" as="geometry" />
        </mxCell>
        <mxCell id="L28LVKQezSPmxj77LQ7G-24" value="fina_array[j] = array[i]&lt;div&gt;j = j + 1&lt;/div&gt;" style="rounded=0;whiteSpace=wrap;html=1;" vertex="1" parent="WIyWlLk6GJQsqaUBKTNV-1">
          <mxGeometry x="245" y="1130" width="290" height="60" as="geometry" />
        </mxCell>
        <mxCell id="L28LVKQezSPmxj77LQ7G-25" style="edgeStyle=orthogonalEdgeStyle;rounded=0;orthogonalLoop=1;jettySize=auto;html=1;entryX=0.014;entryY=0.338;entryDx=0;entryDy=0;entryPerimeter=0;exitX=0;exitY=0.5;exitDx=0;exitDy=0;" edge="1" parent="WIyWlLk6GJQsqaUBKTNV-1" source="L28LVKQezSPmxj77LQ7G-24" target="L28LVKQezSPmxj77LQ7G-18">
          <mxGeometry relative="1" as="geometry">
            <Array as="points">
              <mxPoint x="120" y="1160" />
              <mxPoint x="120" y="897" />
            </Array>
          </mxGeometry>
        </mxCell>
        <mxCell id="L28LVKQezSPmxj77LQ7G-27" value="Print (final_array)" style="shape=document;whiteSpace=wrap;html=1;boundedLbl=1;" vertex="1" parent="WIyWlLk6GJQsqaUBKTNV-1">
          <mxGeometry x="315" y="1330" width="180" height="80" as="geometry" />
        </mxCell>
      </root>
    </mxGraphModel>
  </diagram>
</mxfile>
